<svg width="386" height="173" viewBox="0 0 386 173" fill="none" xmlns="http://www.w3.org/2000/svg">
<mask id="path-1-outside-1_584_1085" maskUnits="userSpaceOnUse" x="-0.301758" y="-0.342163" width="386" height="173" fill="black">
<rect fill="white" x="-0.301758" y="-0.342163" width="386" height="173"/>
<path d="M69.4321 13.0255C69.6347 12.7669 70.2987 12.4523 70.732 12.1657C73.7303 11.802 76.5328 9.82381 79.587 9.92139C79.8456 10.1241 80.2789 9.83746 80.4816 9.57885C81.3762 9.23629 82.2428 8.66311 83.1653 8.5512C88.2114 7.70506 93.4322 6.36966 98.7928 6.18747C102.539 6.20111 106.083 6.47337 109.885 6.94828C112.967 7.27649 115.497 8.84183 117.594 10.6938C120.005 13.2096 121.956 15.7815 123.039 18.9265C124.095 21.8409 125.151 24.7552 126.206 27.6696C126.633 29.2561 126.828 30.8706 127.283 32.6877C128.584 39.5509 129.423 46.4701 128.648 53.5851C128.201 57.6179 125.971 60.4627 122.477 62.5248C118.144 65.3907 113.783 68.026 109.163 70.4586C107.43 71.605 105.18 72.3461 103.16 73.0591C99.7844 74.1707 96.4367 75.5129 92.9492 75.7019C91.796 75.8418 91.4186 76.5897 91.7612 77.4843C92.0409 79.7907 92.81 82.2717 93.0898 84.5781C93.5094 88.0377 93.9291 91.4973 94.3208 94.7262C95.0202 100.492 95.9223 106 96.5937 111.535C96.9854 114.764 96.9158 118.049 97.0769 121.306C97.1608 121.998 97.2447 122.69 97.3287 123.381C97.951 126.582 98.3427 129.811 98.965 133.012C99.4406 136.933 99.6856 140.882 100.392 144.775C100.923 149.157 101.686 153.511 102.217 157.893C102.217 157.893 102.245 158.124 102.273 158.355C102.113 162.821 103.469 162.422 98.2479 163.758C95.5361 164.555 92.8244 165.352 90.1127 166.149C89.6514 166.205 89.1902 166.261 88.7289 166.316C87.7012 163.633 87.3935 161.096 87.0857 158.559C85.764 149.592 84.6729 140.597 83.3232 131.399C82.9874 128.632 82.3931 125.661 81.8267 122.922C81.0993 116.925 80.3439 110.698 79.6165 104.701C78.6585 98.7324 77.6724 92.5331 76.945 86.5365C76.1828 82.1824 75.9099 78.0029 75.1756 73.8794C74.8399 71.1117 74.5042 68.344 74.1684 65.5764C73.497 60.041 72.8255 54.5057 72.3847 48.9424C72.2448 47.7892 72.1049 46.636 71.9371 45.2522C71.4055 40.87 70.9019 36.7185 70.3704 32.3364C70.2373 29.3101 69.8736 26.3118 69.7405 23.2855C69.5727 21.9017 69.3768 20.2872 69.209 18.9034C69.097 17.9808 69.0131 17.2889 69.5931 16.2824C69.9705 15.5345 69.5999 14.4093 69.4321 13.0255ZM88.5377 60.5569C90.1521 60.361 91.3333 60.4518 92.6892 60.0533C96.7567 58.8578 100.622 57.9209 104.689 56.7254C107.834 55.6418 110.147 53.4889 111.426 50.5254C113.46 46.0662 114.053 41.3135 112.976 36.2954C112.438 33.7863 111.872 31.0466 111.103 28.5656C109.537 23.3728 105.888 20.3049 100.618 19.3059C96.5574 18.6283 92.6645 19.3346 88.541 20.0688C86.2626 20.5792 84.2148 21.0617 82.3069 22.6973C84.307 35.3265 85.8177 47.781 88.5377 60.5569Z"/>
<path d="M184.583 69.8036C187.917 71.0465 190.28 73.2334 192.4 75.6562C194.052 77.3545 195.707 78.8135 197.12 80.5085C199.948 83.6591 200.856 87.2619 202.239 91.1105C205.237 99.2897 205.596 107.911 205.234 116.762C205.194 119.633 204.912 122.741 204.629 125.848C204.599 128.002 204.334 129.913 204.068 131.824C204.028 134.696 203.992 137.328 203.712 140.196C203.404 145.218 202.852 150.476 202.3 155.734C202.284 156.931 201.795 157.642 200.36 157.622C195.328 158.031 190.538 158.204 185.51 158.374C185.028 158.606 184.553 158.36 183.835 158.35C183.848 157.393 183.622 156.433 183.635 155.475C184.898 150.706 184.725 145.917 184.788 141.37C185.117 134.912 185.203 128.691 184.814 122.223C184.445 114.32 183.833 106.652 182.746 98.7387C182.317 95.1426 181.413 91.3006 179.781 88.1665C177.92 84.3113 175.331 81.1639 170.305 81.0943C164.565 80.7754 158.816 81.1744 153.053 82.5306C153.033 83.9664 152.77 85.6382 152.99 87.0773C152.943 90.4274 153.139 93.5416 153.336 96.6558C153.283 100.485 153.233 104.074 153.18 107.903C153.163 109.099 153.15 110.056 153.133 111.253C153.08 115.082 153.027 118.91 152.974 122.739C152.958 123.936 152.941 125.132 152.921 126.568C152.366 132.065 151.811 137.562 152.214 143.073C152.417 145.709 152.383 148.102 152.108 150.73C152.074 153.123 151.589 153.595 149.193 153.802C146.797 154.008 144.4 154.214 141.761 154.656C140.804 154.643 139.844 154.869 138.887 154.855C138.405 155.088 137.929 154.842 137.451 154.836C137.228 153.636 137.245 152.439 137.258 151.482C136.879 144.297 136.742 136.875 136.363 129.689C135.831 116.279 136.495 102.885 136.681 89.4841C137.016 82.5478 137.591 75.6148 137.927 68.6784C138.488 62.7026 139.046 56.9661 139.608 50.9903C140.153 46.211 140.462 41.1891 140.767 36.4064C141.329 30.4306 141.89 24.4548 142.212 18.4757C142.501 14.8895 142.315 11.0575 142.126 7.46467C142.85 6.99602 143.578 6.28808 144.306 5.58013C144.791 5.10817 145.752 4.88213 146.469 4.89208C150.787 4.23388 155.34 3.81827 159.893 3.40269C160.85 3.41595 161.811 3.18992 162.768 3.20318C168.046 2.31894 173.294 3.58837 178.303 4.85449C182.836 5.87468 186.632 8.32071 189.457 11.7107C191.574 14.3728 193.445 17.5102 194.359 20.6343C195.961 25.9221 196.842 31.4392 196.527 36.9397C196.241 40.2866 196.195 43.6367 196.152 46.7476C196.138 47.7048 195.882 48.898 195.63 49.8518C195.112 52.7168 194.351 55.8177 193.59 58.9186C193.34 59.6332 192.848 60.5838 192.36 61.295C190.416 63.4222 188.471 65.5493 186.527 67.6765C186.039 68.3877 185.311 69.0957 184.583 69.8036ZM153.78 64.5899C156.897 64.1544 160.008 64.1975 163.126 63.7621C166.247 63.0873 169.371 62.1732 172.495 61.2591C173.455 61.0331 174.423 60.3284 174.911 59.6172C177.846 55.1103 179.344 50.5836 179.421 45.0797C179.48 40.7724 178.583 36.4517 177.928 31.8951C177.489 29.0169 176.811 26.1354 175.415 23.2439C173.78 20.3492 171.417 18.1623 168.083 16.9194C164.749 15.6765 161.393 16.1087 158.049 15.5837C157.095 15.3311 156.135 15.5571 154.938 15.5405C154.586 23.6733 154.473 31.8095 153.882 39.939C153.53 48.0718 153.421 55.9686 153.78 64.5899Z"/>
<path d="M216.567 9.21419C218.262 7.80162 220.186 7.11025 222.579 7.14341C224.733 7.17325 227.129 6.96711 229.286 6.75766C230.725 6.53826 230.961 6.78087 231.181 8.21997C231.154 10.1344 231.131 11.8094 231.347 13.4878C231.52 18.2771 231.693 23.0664 231.866 27.8556C231.816 31.4451 231.763 35.2739 231.71 39.1026C231.657 42.9314 231.847 46.5242 231.794 50.3529C231.458 57.2893 231.365 63.9896 231.273 70.6899C231.21 75.2366 231.386 79.7865 231.562 84.3365C231.522 87.2081 231.243 90.0763 231.207 92.7086C231.184 94.3837 231.4 96.0621 231.38 97.4979C231.37 98.2158 231.124 98.6911 231.117 99.1697C231.104 100.127 230.855 100.841 231.084 101.563C232.221 105.887 231.44 110.423 231.38 114.731C231.317 119.277 231.015 123.821 230.952 128.367C230.869 134.35 230.79 140.093 230.707 146.075C230.684 147.75 230.182 149.419 230.158 151.094C230.139 152.53 229.414 152.998 228.214 153.221C224.621 153.411 221.032 153.361 217.2 153.547C216.721 153.541 216.003 153.531 215.286 153.521C215.053 153.039 214.817 152.796 214.817 152.796C214.896 147.053 214.973 141.549 215.049 136.045C215.115 131.259 215.424 126.237 215.491 121.451C215.547 117.383 215.603 113.315 215.663 109.008C215.696 106.615 215.969 104.225 216.005 101.593C216.045 98.7215 215.849 95.6073 215.888 92.7357C215.725 87.2285 215.802 81.7247 215.881 75.9816C216.024 65.6918 216.409 55.166 216.312 44.8729C216.405 38.1725 216.741 31.2362 216.837 24.2966C216.641 21.1824 216.926 17.8355 216.973 14.4854C216.757 12.807 216.78 11.1319 216.567 9.21419Z"/>
<path d="M288.329 120.307C288.372 117.196 288.412 114.324 288.455 111.213C288.471 110.017 289.196 109.548 290.396 109.325C292.792 109.119 295.434 108.438 297.834 107.992C298.312 107.999 299.033 107.77 299.751 107.78C300.709 107.793 301.181 108.278 301.167 109.235C301.553 115.942 302.66 122.42 302.089 129.114C301.773 134.614 300.028 139.616 296.858 143.88C293.205 148.377 288.602 152.382 282.361 153.732C280.918 154.191 279.472 154.889 278.269 155.351C276.106 156.039 274.191 156.012 272.041 155.743C270.848 155.487 269.415 155.228 268.219 155.211C265.587 155.175 263.446 154.188 261.309 152.962C260.355 152.709 259.647 151.981 258.693 151.729C253.455 149.741 250.647 145.155 248.081 140.332C245.039 135.264 243.919 129.744 243.763 123.758C243.397 115.615 242.789 107.708 243.141 99.5756C243.197 95.5075 243.735 91.2068 243.792 87.1388C243.865 81.8742 243.702 76.3671 243.535 71.0992C243.538 70.8599 243.306 70.378 243.309 70.1387C243.362 66.3099 242.664 64.8642 242.701 62.2319C242.767 57.4459 242.594 52.6567 242.66 47.8707C243.026 38.7807 244.348 29.704 247.1 21.1258C248.353 17.0743 250.792 13.7573 253.228 10.6796C254.687 9.02438 256.857 7.85773 258.785 6.92707C261.919 5.29508 265.053 3.66311 268.41 3.23093C273.93 2.11071 278.949 2.65894 284.187 4.64626C287.524 5.64987 290.612 7.36807 293.939 9.08957C294.889 9.58143 295.836 10.3126 296.78 11.283C301.267 15.6534 302.869 20.9412 303.026 26.9269C302.966 31.2343 303.142 35.7842 303.083 40.0916C303.043 42.9632 302.528 45.5888 302.252 48.2178C301.993 49.6502 301.029 50.1156 299.833 50.099C296.718 50.2952 293.368 50.2488 290.257 50.2057C288.582 50.1824 288.586 49.9432 288.369 48.2648C287.731 42.5117 287.332 36.7619 286.694 31.0088C286.494 28.1339 284.856 25.4784 283.453 23.0656C282.512 21.8558 280.844 21.354 279.169 21.3308C274.868 20.7925 270.777 22.4112 266.925 24.0332C263.798 25.1866 262.086 27.7957 261.089 30.654C260.345 32.5584 259.836 34.7055 259.57 36.6166C258.53 42.5857 258.444 48.8075 258.84 54.7965C259.039 57.6714 258.763 60.3004 258.724 63.172C258.671 67.0007 258.621 70.5902 258.807 74.4223C259.186 81.6078 260.047 88.5607 260.19 95.5037C260.343 101.729 260.972 108.2 261.604 114.431C261.574 116.585 261.783 118.742 261.993 120.899C262.415 124.974 263.558 128.819 265.905 132.202C267.311 134.376 269.205 135.838 271.828 136.593C272.781 136.845 273.732 137.337 274.686 137.59C280.406 139.344 285.953 136.31 287.229 130.583C287.491 128.911 287.751 127.479 287.774 125.804C287.8 123.889 287.823 122.214 287.85 120.3C288.089 120.303 288.089 120.303 288.329 120.307Z"/>
<path d="M315.529 4.60186C319.115 4.89089 322.462 5.17661 325.566 5.69832C327.955 5.97077 328.899 6.94123 328.863 9.57349C328.836 11.4879 328.807 13.6416 329.019 15.5593C328.97 19.1487 329.159 22.7415 329.109 26.331C329.053 30.399 329.236 34.4704 328.94 38.5352C328.648 42.3606 328.837 45.9534 328.784 49.7821C328.771 50.7393 329.001 51.4605 329.223 52.6603C333.534 52.4807 337.848 52.0618 341.919 51.8789C346.233 51.46 350.301 51.5163 354.373 51.3334C358.447 50.9112 362.745 51.6888 367.069 50.552C367.079 49.8341 367.092 48.8769 367.102 48.159C367.175 42.8944 367.005 37.8659 367.075 32.8406C366.898 28.2907 366.962 23.744 367.26 19.44C367.323 14.8933 367.383 10.5859 368.4 6.29185C368.663 4.62007 369.148 4.14812 370.82 4.41062C373.445 4.9257 376.323 4.48689 378.962 4.04477C380.405 3.58606 380.637 4.06798 380.86 5.26778C381.053 8.62127 381.249 11.7355 381.442 15.0889C381.618 19.6389 382.037 23.9529 381.974 28.4995C382.157 32.5709 382.101 36.639 382.28 40.9497C382.204 46.4535 382.364 52.2 382.524 57.9464C382.471 61.7752 382.182 65.3613 383.086 69.2034C383.308 70.4032 383.052 71.5963 383.036 72.7928C382.99 76.143 382.946 79.2539 383.139 82.6073C383.306 87.8752 383.472 93.1431 383.638 98.4109C383.579 102.718 383.28 107.022 383.22 111.33C383.17 114.919 383.36 118.512 383.313 121.862C383.24 127.127 382.932 132.149 382.862 137.174C382.825 139.806 383.032 142.202 383.234 144.838C383.198 147.47 382.925 149.86 382.65 152.489C382.63 153.925 382.367 155.596 382.108 157.029C377.555 157.445 373.224 159.06 368.684 158.518C368.165 126.918 367.878 95.7991 367.355 64.4379C364.972 63.6868 362.812 64.1356 360.415 64.3417C356.344 64.5246 352.03 64.9435 347.716 65.3624C346.041 65.3392 344.363 65.5553 342.684 65.7714C338.852 65.9577 335.259 66.1472 331.424 66.5728C330.945 66.5661 330.463 66.7988 329.985 66.7922C329.024 67.0182 328.778 67.4935 328.765 68.4507C328.695 73.4759 328.387 78.4978 328.32 83.2838C328.28 86.1554 328.719 89.0336 328.683 91.6659C328.879 94.78 329.072 98.1335 329.029 101.244C328.996 103.637 328.72 106.266 328.687 108.659C328.384 113.203 328.561 117.753 328.258 122.296C328.222 124.928 327.949 127.318 327.913 129.95C327.893 131.386 328.112 132.825 328.089 134.5C328.069 135.936 328.285 137.614 328.262 139.289C327.973 142.876 327.923 146.465 327.874 150.054C327.611 151.726 327.123 152.438 325.448 152.414C322.101 152.129 318.734 153.279 315.38 153.472C314.902 153.465 314.663 153.462 314.184 153.455C312.27 153.428 312.034 153.186 312.06 151.271C312.14 145.528 312.219 139.785 312.535 134.285C312.621 128.063 312.468 121.838 312.794 115.619C312.89 108.68 313.225 101.743 313.321 94.8038C313.364 91.6929 313.165 88.8181 313.208 85.7072C313.284 80.2033 313.6 74.7028 313.676 69.199C314.008 62.5019 315.058 55.8149 314.912 49.1112C315.018 41.4537 315.363 33.7995 315.227 26.378C315.263 23.7457 315.778 21.12 315.815 18.4878C315.629 14.6557 315.678 11.0662 315.492 7.23413C315.502 6.51625 315.515 5.55905 315.529 4.60186Z"/>
<path d="M50.508 152.578C50.862 155.495 51.449 158.116 51.7385 160.503C52.3255 163.123 52.382 165.808 52.4707 168.758C51.675 168.854 50.9114 169.216 50.3809 169.28C46.9327 169.699 43.7497 170.085 40.5668 170.471C38.71 170.696 38.1152 170.23 37.89 168.373C37.1743 164.692 36.4586 161.011 35.7107 157.064C35.3489 156.301 35.2524 155.505 35.1559 154.709C32.3747 153.97 29.8588 153.199 27.3107 152.162C21.3865 149.92 17.0939 145.596 13.7336 140.082C10.4698 135.364 8.73312 129.923 7.79219 124.385C7.43042 123.621 7.36607 123.091 7.0043 122.327C6.4173 119.707 7.11651 118.814 9.80116 118.758C11.9553 118.766 14.1095 118.774 16.2636 118.782C18.1203 118.556 20.2423 118.299 22.1312 118.339C22.6617 118.275 22.927 118.242 23.4896 118.443C23.9479 120.003 24.1732 121.859 24.6315 123.419C26.6334 128.828 29.3667 133.61 33.3619 137.701C35.6047 140.659 38.8842 141.069 41.9063 139.356C46.1903 136.952 49.8794 134.083 50.3291 128.914C50.3369 126.76 50.61 124.574 49.8221 122.516C49.2351 119.896 47.8845 117.637 46.534 115.379C42.4501 108.338 36.172 103.178 29.6931 98.5811C27.6433 97.2149 26.0919 95.519 24.0421 94.1528C22.2254 92.4891 19.9103 91.155 18.3589 89.4591C14.9907 86.0996 11.8878 82.7079 9.28316 78.9866C4.76531 72.8059 2.80341 65.5076 2.69824 57.9842C2.71393 53.6759 3.05922 49.8659 4.16807 45.6942C4.81078 42.1172 6.90842 39.4404 8.4434 36.5627C9.9462 33.4198 12.7352 32.0049 15.5242 30.59C14.9773 26.0807 14.4624 21.8368 13.8833 17.0624C14.9121 16.6684 15.6757 16.3066 16.4392 15.9448C19.3248 15.3257 22.4434 14.4091 25.2968 13.5247C26.5908 13.0985 27.4509 13.5325 27.8449 14.5613C28.4319 17.1816 28.7536 19.8341 29.0754 22.4866C29.3006 24.3433 29.2284 25.9669 29.2206 28.1211C30.8442 28.1933 32.2348 28.5629 33.5932 28.6673C36.8727 29.0769 40.2487 30.2823 42.8934 32.1147C46.9607 34.582 49.5332 38.038 50.8759 42.4507C52.6447 48.1574 54.1484 53.8963 55.652 59.6352C56.0459 60.6641 56.1746 61.7251 56.0381 62.8182C56.1989 64.1445 55.765 65.0045 54.4709 65.4307C51.8506 66.0177 49.2625 66.8699 46.6422 67.4569C44.8176 67.9474 43.0653 66.8142 42.5426 64.7244C41.5295 60.81 40.5164 56.8957 39.5033 52.9813C38.651 50.3932 37.5013 47.572 34.6558 46.3023C32.373 45.2335 30.1223 44.4299 27.4698 44.7516C24.8173 45.0734 23.0893 46.3596 22.2857 48.6103C20.542 54.2048 20.6872 59.8393 22.456 65.5461C23.6701 68.8978 26.379 71.2607 29.0558 73.3583C30.2777 74.5558 31.7648 75.7212 32.9867 76.9187C35.7278 79.5469 38.6377 81.3471 42.279 82.5203C45.0923 83.5248 48.1709 84.4971 49.8833 87.5192C54.409 91.5457 57.4397 96.5611 61.234 101.215C64.3691 104.872 66.2423 109.22 67.8824 113.866C69.6191 119.307 69.4991 124.974 69.6442 130.608C69.6929 135.447 67.7883 139.716 64.7262 143.317C60.9649 147.81 56.2469 151.074 50.508 152.578Z"/>
</mask>
<path d="M69.4321 13.0255C69.6347 12.7669 70.2987 12.4523 70.732 12.1657C73.7303 11.802 76.5328 9.82381 79.587 9.92139C79.8456 10.1241 80.2789 9.83746 80.4816 9.57885C81.3762 9.23629 82.2428 8.66311 83.1653 8.5512C88.2114 7.70506 93.4322 6.36966 98.7928 6.18747C102.539 6.20111 106.083 6.47337 109.885 6.94828C112.967 7.27649 115.497 8.84183 117.594 10.6938C120.005 13.2096 121.956 15.7815 123.039 18.9265C124.095 21.8409 125.151 24.7552 126.206 27.6696C126.633 29.2561 126.828 30.8706 127.283 32.6877C128.584 39.5509 129.423 46.4701 128.648 53.5851C128.201 57.6179 125.971 60.4627 122.477 62.5248C118.144 65.3907 113.783 68.026 109.163 70.4586C107.43 71.605 105.18 72.3461 103.16 73.0591C99.7844 74.1707 96.4367 75.5129 92.9492 75.7019C91.796 75.8418 91.4186 76.5897 91.7612 77.4843C92.0409 79.7907 92.81 82.2717 93.0898 84.5781C93.5094 88.0377 93.9291 91.4973 94.3208 94.7262C95.0202 100.492 95.9223 106 96.5937 111.535C96.9854 114.764 96.9158 118.049 97.0769 121.306C97.1608 121.998 97.2447 122.69 97.3287 123.381C97.951 126.582 98.3427 129.811 98.965 133.012C99.4406 136.933 99.6856 140.882 100.392 144.775C100.923 149.157 101.686 153.511 102.217 157.893C102.217 157.893 102.245 158.124 102.273 158.355C102.113 162.821 103.469 162.422 98.2479 163.758C95.5361 164.555 92.8244 165.352 90.1127 166.149C89.6514 166.205 89.1902 166.261 88.7289 166.316C87.7012 163.633 87.3935 161.096 87.0857 158.559C85.764 149.592 84.6729 140.597 83.3232 131.399C82.9874 128.632 82.3931 125.661 81.8267 122.922C81.0993 116.925 80.3439 110.698 79.6165 104.701C78.6585 98.7324 77.6724 92.5331 76.945 86.5365C76.1828 82.1824 75.9099 78.0029 75.1756 73.8794C74.8399 71.1117 74.5042 68.344 74.1684 65.5764C73.497 60.041 72.8255 54.5057 72.3847 48.9424C72.2448 47.7892 72.1049 46.636 71.9371 45.2522C71.4055 40.87 70.9019 36.7185 70.3704 32.3364C70.2373 29.3101 69.8736 26.3118 69.7405 23.2855C69.5727 21.9017 69.3768 20.2872 69.209 18.9034C69.097 17.9808 69.0131 17.2889 69.5931 16.2824C69.9705 15.5345 69.5999 14.4093 69.4321 13.0255ZM88.5377 60.5569C90.1521 60.361 91.3333 60.4518 92.6892 60.0533C96.7567 58.8578 100.622 57.9209 104.689 56.7254C107.834 55.6418 110.147 53.4889 111.426 50.5254C113.46 46.0662 114.053 41.3135 112.976 36.2954C112.438 33.7863 111.872 31.0466 111.103 28.5656C109.537 23.3728 105.888 20.3049 100.618 19.3059C96.5574 18.6283 92.6645 19.3346 88.541 20.0688C86.2626 20.5792 84.2148 21.0617 82.3069 22.6973C84.307 35.3265 85.8177 47.781 88.5377 60.5569Z" fill="#E4794D"/>
<path d="M184.583 69.8036C187.917 71.0465 190.28 73.2334 192.4 75.6562C194.052 77.3545 195.707 78.8135 197.12 80.5085C199.948 83.6591 200.856 87.2619 202.239 91.1105C205.237 99.2897 205.596 107.911 205.234 116.762C205.194 119.633 204.912 122.741 204.629 125.848C204.599 128.002 204.334 129.913 204.068 131.824C204.028 134.696 203.992 137.328 203.712 140.196C203.404 145.218 202.852 150.476 202.3 155.734C202.284 156.931 201.795 157.642 200.36 157.622C195.328 158.031 190.538 158.204 185.51 158.374C185.028 158.606 184.553 158.36 183.835 158.35C183.848 157.393 183.622 156.433 183.635 155.475C184.898 150.706 184.725 145.917 184.788 141.37C185.117 134.912 185.203 128.691 184.814 122.223C184.445 114.32 183.833 106.652 182.746 98.7387C182.317 95.1426 181.413 91.3006 179.781 88.1665C177.92 84.3113 175.331 81.1639 170.305 81.0943C164.565 80.7754 158.816 81.1744 153.053 82.5306C153.033 83.9664 152.77 85.6382 152.99 87.0773C152.943 90.4274 153.139 93.5416 153.336 96.6558C153.283 100.485 153.233 104.074 153.18 107.903C153.163 109.099 153.15 110.056 153.133 111.253C153.08 115.082 153.027 118.91 152.974 122.739C152.958 123.936 152.941 125.132 152.921 126.568C152.366 132.065 151.811 137.562 152.214 143.073C152.417 145.709 152.383 148.102 152.108 150.73C152.074 153.123 151.589 153.595 149.193 153.802C146.797 154.008 144.4 154.214 141.761 154.656C140.804 154.643 139.844 154.869 138.887 154.855C138.405 155.088 137.929 154.842 137.451 154.836C137.228 153.636 137.245 152.439 137.258 151.482C136.879 144.297 136.742 136.875 136.363 129.689C135.831 116.279 136.495 102.885 136.681 89.4841C137.016 82.5478 137.591 75.6148 137.927 68.6784C138.488 62.7026 139.046 56.9661 139.608 50.9903C140.153 46.211 140.462 41.1891 140.767 36.4064C141.329 30.4306 141.89 24.4548 142.212 18.4757C142.501 14.8895 142.315 11.0575 142.126 7.46467C142.85 6.99602 143.578 6.28808 144.306 5.58013C144.791 5.10817 145.752 4.88213 146.469 4.89208C150.787 4.23388 155.34 3.81827 159.893 3.40269C160.85 3.41595 161.811 3.18992 162.768 3.20318C168.046 2.31894 173.294 3.58837 178.303 4.85449C182.836 5.87468 186.632 8.32071 189.457 11.7107C191.574 14.3728 193.445 17.5102 194.359 20.6343C195.961 25.9221 196.842 31.4392 196.527 36.9397C196.241 40.2866 196.195 43.6367 196.152 46.7476C196.138 47.7048 195.882 48.898 195.63 49.8518C195.112 52.7168 194.351 55.8177 193.59 58.9186C193.34 59.6332 192.848 60.5838 192.36 61.295C190.416 63.4222 188.471 65.5493 186.527 67.6765C186.039 68.3877 185.311 69.0957 184.583 69.8036ZM153.78 64.5899C156.897 64.1544 160.008 64.1975 163.126 63.7621C166.247 63.0873 169.371 62.1732 172.495 61.2591C173.455 61.0331 174.423 60.3284 174.911 59.6172C177.846 55.1103 179.344 50.5836 179.421 45.0797C179.48 40.7724 178.583 36.4517 177.928 31.8951C177.489 29.0169 176.811 26.1354 175.415 23.2439C173.78 20.3492 171.417 18.1623 168.083 16.9194C164.749 15.6765 161.393 16.1087 158.049 15.5837C157.095 15.3311 156.135 15.5571 154.938 15.5405C154.586 23.6733 154.473 31.8095 153.882 39.939C153.53 48.0718 153.421 55.9686 153.78 64.5899Z" fill="#E4794D"/>
<path d="M216.567 9.21419C218.262 7.80162 220.186 7.11025 222.579 7.14341C224.733 7.17325 227.129 6.96711 229.286 6.75766C230.725 6.53826 230.961 6.78087 231.181 8.21997C231.154 10.1344 231.131 11.8094 231.347 13.4878C231.52 18.2771 231.693 23.0664 231.866 27.8556C231.816 31.4451 231.763 35.2739 231.71 39.1026C231.657 42.9314 231.847 46.5242 231.794 50.3529C231.458 57.2893 231.365 63.9896 231.273 70.6899C231.21 75.2366 231.386 79.7865 231.562 84.3365C231.522 87.2081 231.243 90.0763 231.207 92.7086C231.184 94.3837 231.4 96.0621 231.38 97.4979C231.37 98.2158 231.124 98.6911 231.117 99.1697C231.104 100.127 230.855 100.841 231.084 101.563C232.221 105.887 231.44 110.423 231.38 114.731C231.317 119.277 231.015 123.821 230.952 128.367C230.869 134.35 230.79 140.093 230.707 146.075C230.684 147.75 230.182 149.419 230.158 151.094C230.139 152.53 229.414 152.998 228.214 153.221C224.621 153.411 221.032 153.361 217.2 153.547C216.721 153.541 216.003 153.531 215.286 153.521C215.053 153.039 214.817 152.796 214.817 152.796C214.896 147.053 214.973 141.549 215.049 136.045C215.115 131.259 215.424 126.237 215.491 121.451C215.547 117.383 215.603 113.315 215.663 109.008C215.696 106.615 215.969 104.225 216.005 101.593C216.045 98.7215 215.849 95.6073 215.888 92.7357C215.725 87.2285 215.802 81.7247 215.881 75.9816C216.024 65.6918 216.409 55.166 216.312 44.8729C216.405 38.1725 216.741 31.2362 216.837 24.2966C216.641 21.1824 216.926 17.8355 216.973 14.4854C216.757 12.807 216.78 11.1319 216.567 9.21419Z" fill="#E4794D"/>
<path d="M288.329 120.307C288.372 117.196 288.412 114.324 288.455 111.213C288.471 110.017 289.196 109.548 290.396 109.325C292.792 109.119 295.434 108.438 297.834 107.992C298.312 107.999 299.033 107.77 299.751 107.78C300.709 107.793 301.181 108.278 301.167 109.235C301.553 115.942 302.66 122.42 302.089 129.114C301.773 134.614 300.028 139.616 296.858 143.88C293.205 148.377 288.602 152.382 282.361 153.732C280.918 154.191 279.472 154.889 278.269 155.351C276.106 156.039 274.191 156.012 272.041 155.743C270.848 155.487 269.415 155.228 268.219 155.211C265.587 155.175 263.446 154.188 261.309 152.962C260.355 152.709 259.647 151.981 258.693 151.729C253.455 149.741 250.647 145.155 248.081 140.332C245.039 135.264 243.919 129.744 243.763 123.758C243.397 115.615 242.789 107.708 243.141 99.5756C243.197 95.5075 243.735 91.2068 243.792 87.1388C243.865 81.8742 243.702 76.3671 243.535 71.0992C243.538 70.8599 243.306 70.378 243.309 70.1387C243.362 66.3099 242.664 64.8642 242.701 62.2319C242.767 57.4459 242.594 52.6567 242.66 47.8707C243.026 38.7807 244.348 29.704 247.1 21.1258C248.353 17.0743 250.792 13.7573 253.228 10.6796C254.687 9.02438 256.857 7.85773 258.785 6.92707C261.919 5.29508 265.053 3.66311 268.41 3.23093C273.93 2.11071 278.949 2.65894 284.187 4.64626C287.524 5.64987 290.612 7.36807 293.939 9.08957C294.889 9.58143 295.836 10.3126 296.78 11.283C301.267 15.6534 302.869 20.9412 303.026 26.9269C302.966 31.2343 303.142 35.7842 303.083 40.0916C303.043 42.9632 302.528 45.5888 302.252 48.2178C301.993 49.6502 301.029 50.1156 299.833 50.099C296.718 50.2952 293.368 50.2488 290.257 50.2057C288.582 50.1824 288.586 49.9432 288.369 48.2648C287.731 42.5117 287.332 36.7619 286.694 31.0088C286.494 28.1339 284.856 25.4784 283.453 23.0656C282.512 21.8558 280.844 21.354 279.169 21.3308C274.868 20.7925 270.777 22.4112 266.925 24.0332C263.798 25.1866 262.086 27.7957 261.089 30.654C260.345 32.5584 259.836 34.7055 259.57 36.6166C258.53 42.5857 258.444 48.8075 258.84 54.7965C259.039 57.6714 258.763 60.3004 258.724 63.172C258.671 67.0007 258.621 70.5902 258.807 74.4223C259.186 81.6078 260.047 88.5607 260.19 95.5037C260.343 101.729 260.972 108.2 261.604 114.431C261.574 116.585 261.783 118.742 261.993 120.899C262.415 124.974 263.558 128.819 265.905 132.202C267.311 134.376 269.205 135.838 271.828 136.593C272.781 136.845 273.732 137.337 274.686 137.59C280.406 139.344 285.953 136.31 287.229 130.583C287.491 128.911 287.751 127.479 287.774 125.804C287.8 123.889 287.823 122.214 287.85 120.3C288.089 120.303 288.089 120.303 288.329 120.307Z" fill="#E4794D"/>
<path d="M315.529 4.60186C319.115 4.89089 322.462 5.17661 325.566 5.69832C327.955 5.97077 328.899 6.94123 328.863 9.57349C328.836 11.4879 328.807 13.6416 329.019 15.5593C328.97 19.1487 329.159 22.7415 329.109 26.331C329.053 30.399 329.236 34.4704 328.94 38.5352C328.648 42.3606 328.837 45.9534 328.784 49.7821C328.771 50.7393 329.001 51.4605 329.223 52.6603C333.534 52.4807 337.848 52.0618 341.919 51.8789C346.233 51.46 350.301 51.5163 354.373 51.3334C358.447 50.9112 362.745 51.6888 367.069 50.552C367.079 49.8341 367.092 48.8769 367.102 48.159C367.175 42.8944 367.005 37.8659 367.075 32.8406C366.898 28.2907 366.962 23.744 367.26 19.44C367.323 14.8933 367.383 10.5859 368.4 6.29185C368.663 4.62007 369.148 4.14812 370.82 4.41062C373.445 4.9257 376.323 4.48689 378.962 4.04477C380.405 3.58606 380.637 4.06798 380.86 5.26778C381.053 8.62127 381.249 11.7355 381.442 15.0889C381.618 19.6389 382.037 23.9529 381.974 28.4995C382.157 32.5709 382.101 36.639 382.28 40.9497C382.204 46.4535 382.364 52.2 382.524 57.9464C382.471 61.7752 382.182 65.3613 383.086 69.2034C383.308 70.4032 383.052 71.5963 383.036 72.7928C382.99 76.143 382.946 79.2539 383.139 82.6073C383.306 87.8752 383.472 93.1431 383.638 98.4109C383.579 102.718 383.28 107.022 383.22 111.33C383.17 114.919 383.36 118.512 383.313 121.862C383.24 127.127 382.932 132.149 382.862 137.174C382.825 139.806 383.032 142.202 383.234 144.838C383.198 147.47 382.925 149.86 382.65 152.489C382.63 153.925 382.367 155.596 382.108 157.029C377.555 157.445 373.224 159.06 368.684 158.518C368.165 126.918 367.878 95.7991 367.355 64.4379C364.972 63.6868 362.812 64.1356 360.415 64.3417C356.344 64.5246 352.03 64.9435 347.716 65.3624C346.041 65.3392 344.363 65.5553 342.684 65.7714C338.852 65.9577 335.259 66.1472 331.424 66.5728C330.945 66.5661 330.463 66.7988 329.985 66.7922C329.024 67.0182 328.778 67.4935 328.765 68.4507C328.695 73.4759 328.387 78.4978 328.32 83.2838C328.28 86.1554 328.719 89.0336 328.683 91.6659C328.879 94.78 329.072 98.1335 329.029 101.244C328.996 103.637 328.72 106.266 328.687 108.659C328.384 113.203 328.561 117.753 328.258 122.296C328.222 124.928 327.949 127.318 327.913 129.95C327.893 131.386 328.112 132.825 328.089 134.5C328.069 135.936 328.285 137.614 328.262 139.289C327.973 142.876 327.923 146.465 327.874 150.054C327.611 151.726 327.123 152.438 325.448 152.414C322.101 152.129 318.734 153.279 315.38 153.472C314.902 153.465 314.663 153.462 314.184 153.455C312.27 153.428 312.034 153.186 312.06 151.271C312.14 145.528 312.219 139.785 312.535 134.285C312.621 128.063 312.468 121.838 312.794 115.619C312.89 108.68 313.225 101.743 313.321 94.8038C313.364 91.6929 313.165 88.8181 313.208 85.7072C313.284 80.2033 313.6 74.7028 313.676 69.199C314.008 62.5019 315.058 55.8149 314.912 49.1112C315.018 41.4537 315.363 33.7995 315.227 26.378C315.263 23.7457 315.778 21.12 315.815 18.4878C315.629 14.6557 315.678 11.0662 315.492 7.23413C315.502 6.51625 315.515 5.55905 315.529 4.60186Z" fill="#E4794D"/>
<path d="M50.508 152.578C50.862 155.495 51.449 158.116 51.7385 160.503C52.3255 163.123 52.382 165.808 52.4707 168.758C51.675 168.854 50.9114 169.216 50.3809 169.28C46.9327 169.699 43.7497 170.085 40.5668 170.471C38.71 170.696 38.1152 170.23 37.89 168.373C37.1743 164.692 36.4586 161.011 35.7107 157.064C35.3489 156.301 35.2524 155.505 35.1559 154.709C32.3747 153.97 29.8588 153.199 27.3107 152.162C21.3865 149.92 17.0939 145.596 13.7336 140.082C10.4698 135.364 8.73312 129.923 7.79219 124.385C7.43042 123.621 7.36607 123.091 7.0043 122.327C6.4173 119.707 7.11651 118.814 9.80116 118.758C11.9553 118.766 14.1095 118.774 16.2636 118.782C18.1203 118.556 20.2423 118.299 22.1312 118.339C22.6617 118.275 22.927 118.242 23.4896 118.443C23.9479 120.003 24.1732 121.859 24.6315 123.419C26.6334 128.828 29.3667 133.61 33.3619 137.701C35.6047 140.659 38.8842 141.069 41.9063 139.356C46.1903 136.952 49.8794 134.083 50.3291 128.914C50.3369 126.76 50.61 124.574 49.8221 122.516C49.2351 119.896 47.8845 117.637 46.534 115.379C42.4501 108.338 36.172 103.178 29.6931 98.5811C27.6433 97.2149 26.0919 95.519 24.0421 94.1528C22.2254 92.4891 19.9103 91.155 18.3589 89.4591C14.9907 86.0996 11.8878 82.7079 9.28316 78.9866C4.76531 72.8059 2.80341 65.5076 2.69824 57.9842C2.71393 53.6759 3.05922 49.8659 4.16807 45.6942C4.81078 42.1172 6.90842 39.4404 8.4434 36.5627C9.9462 33.4198 12.7352 32.0049 15.5242 30.59C14.9773 26.0807 14.4624 21.8368 13.8833 17.0624C14.9121 16.6684 15.6757 16.3066 16.4392 15.9448C19.3248 15.3257 22.4434 14.4091 25.2968 13.5247C26.5908 13.0985 27.4509 13.5325 27.8449 14.5613C28.4319 17.1816 28.7536 19.8341 29.0754 22.4866C29.3006 24.3433 29.2284 25.9669 29.2206 28.1211C30.8442 28.1933 32.2348 28.5629 33.5932 28.6673C36.8727 29.0769 40.2487 30.2823 42.8934 32.1147C46.9607 34.582 49.5332 38.038 50.8759 42.4507C52.6447 48.1574 54.1484 53.8963 55.652 59.6352C56.0459 60.6641 56.1746 61.7251 56.0381 62.8182C56.1989 64.1445 55.765 65.0045 54.4709 65.4307C51.8506 66.0177 49.2625 66.8699 46.6422 67.4569C44.8176 67.9474 43.0653 66.8142 42.5426 64.7244C41.5295 60.81 40.5164 56.8957 39.5033 52.9813C38.651 50.3932 37.5013 47.572 34.6558 46.3023C32.373 45.2335 30.1223 44.4299 27.4698 44.7516C24.8173 45.0734 23.0893 46.3596 22.2857 48.6103C20.542 54.2048 20.6872 59.8393 22.456 65.5461C23.6701 68.8978 26.379 71.2607 29.0558 73.3583C30.2777 74.5558 31.7648 75.7212 32.9867 76.9187C35.7278 79.5469 38.6377 81.3471 42.279 82.5203C45.0923 83.5248 48.1709 84.4971 49.8833 87.5192C54.409 91.5457 57.4397 96.5611 61.234 101.215C64.3691 104.872 66.2423 109.22 67.8824 113.866C69.6191 119.307 69.4991 124.974 69.6442 130.608C69.6929 135.447 67.7883 139.716 64.7262 143.317C60.9649 147.81 56.2469 151.074 50.508 152.578Z" fill="#E4794D"/>
<path d="M69.4321 13.0255C69.6347 12.7669 70.2987 12.4523 70.732 12.1657C73.7303 11.802 76.5328 9.82381 79.587 9.92139C79.8456 10.1241 80.2789 9.83746 80.4816 9.57885C81.3762 9.23629 82.2428 8.66311 83.1653 8.5512C88.2114 7.70506 93.4322 6.36966 98.7928 6.18747C102.539 6.20111 106.083 6.47337 109.885 6.94828C112.967 7.27649 115.497 8.84183 117.594 10.6938C120.005 13.2096 121.956 15.7815 123.039 18.9265C124.095 21.8409 125.151 24.7552 126.206 27.6696C126.633 29.2561 126.828 30.8706 127.283 32.6877C128.584 39.5509 129.423 46.4701 128.648 53.5851C128.201 57.6179 125.971 60.4627 122.477 62.5248C118.144 65.3907 113.783 68.026 109.163 70.4586C107.43 71.605 105.18 72.3461 103.16 73.0591C99.7844 74.1707 96.4367 75.5129 92.9492 75.7019C91.796 75.8418 91.4186 76.5897 91.7612 77.4843C92.0409 79.7907 92.81 82.2717 93.0898 84.5781C93.5094 88.0377 93.9291 91.4973 94.3208 94.7262C95.0202 100.492 95.9223 106 96.5937 111.535C96.9854 114.764 96.9158 118.049 97.0769 121.306C97.1608 121.998 97.2447 122.69 97.3287 123.381C97.951 126.582 98.3427 129.811 98.965 133.012C99.4406 136.933 99.6856 140.882 100.392 144.775C100.923 149.157 101.686 153.511 102.217 157.893C102.217 157.893 102.245 158.124 102.273 158.355C102.113 162.821 103.469 162.422 98.2479 163.758C95.5361 164.555 92.8244 165.352 90.1127 166.149C89.6514 166.205 89.1902 166.261 88.7289 166.316C87.7012 163.633 87.3935 161.096 87.0857 158.559C85.764 149.592 84.6729 140.597 83.3232 131.399C82.9874 128.632 82.3931 125.661 81.8267 122.922C81.0993 116.925 80.3439 110.698 79.6165 104.701C78.6585 98.7324 77.6724 92.5331 76.945 86.5365C76.1828 82.1824 75.9099 78.0029 75.1756 73.8794C74.8399 71.1117 74.5042 68.344 74.1684 65.5764C73.497 60.041 72.8255 54.5057 72.3847 48.9424C72.2448 47.7892 72.1049 46.636 71.9371 45.2522C71.4055 40.87 70.9019 36.7185 70.3704 32.3364C70.2373 29.3101 69.8736 26.3118 69.7405 23.2855C69.5727 21.9017 69.3768 20.2872 69.209 18.9034C69.097 17.9808 69.0131 17.2889 69.5931 16.2824C69.9705 15.5345 69.5999 14.4093 69.4321 13.0255ZM88.5377 60.5569C90.1521 60.361 91.3333 60.4518 92.6892 60.0533C96.7567 58.8578 100.622 57.9209 104.689 56.7254C107.834 55.6418 110.147 53.4889 111.426 50.5254C113.46 46.0662 114.053 41.3135 112.976 36.2954C112.438 33.7863 111.872 31.0466 111.103 28.5656C109.537 23.3728 105.888 20.3049 100.618 19.3059C96.5574 18.6283 92.6645 19.3346 88.541 20.0688C86.2626 20.5792 84.2148 21.0617 82.3069 22.6973C84.307 35.3265 85.8177 47.781 88.5377 60.5569Z" stroke="black" stroke-width="4.05303" mask="url(#path-1-outside-1_584_1085)"/>
<path d="M184.583 69.8036C187.917 71.0465 190.28 73.2334 192.4 75.6562C194.052 77.3545 195.707 78.8135 197.12 80.5085C199.948 83.6591 200.856 87.2619 202.239 91.1105C205.237 99.2897 205.596 107.911 205.234 116.762C205.194 119.633 204.912 122.741 204.629 125.848C204.599 128.002 204.334 129.913 204.068 131.824C204.028 134.696 203.992 137.328 203.712 140.196C203.404 145.218 202.852 150.476 202.3 155.734C202.284 156.931 201.795 157.642 200.36 157.622C195.328 158.031 190.538 158.204 185.51 158.374C185.028 158.606 184.553 158.36 183.835 158.35C183.848 157.393 183.622 156.433 183.635 155.475C184.898 150.706 184.725 145.917 184.788 141.37C185.117 134.912 185.203 128.691 184.814 122.223C184.445 114.32 183.833 106.652 182.746 98.7387C182.317 95.1426 181.413 91.3006 179.781 88.1665C177.92 84.3113 175.331 81.1639 170.305 81.0943C164.565 80.7754 158.816 81.1744 153.053 82.5306C153.033 83.9664 152.77 85.6382 152.99 87.0773C152.943 90.4274 153.139 93.5416 153.336 96.6558C153.283 100.485 153.233 104.074 153.18 107.903C153.163 109.099 153.15 110.056 153.133 111.253C153.08 115.082 153.027 118.91 152.974 122.739C152.958 123.936 152.941 125.132 152.921 126.568C152.366 132.065 151.811 137.562 152.214 143.073C152.417 145.709 152.383 148.102 152.108 150.73C152.074 153.123 151.589 153.595 149.193 153.802C146.797 154.008 144.4 154.214 141.761 154.656C140.804 154.643 139.844 154.869 138.887 154.855C138.405 155.088 137.929 154.842 137.451 154.836C137.228 153.636 137.245 152.439 137.258 151.482C136.879 144.297 136.742 136.875 136.363 129.689C135.831 116.279 136.495 102.885 136.681 89.4841C137.016 82.5478 137.591 75.6148 137.927 68.6784C138.488 62.7026 139.046 56.9661 139.608 50.9903C140.153 46.211 140.462 41.1891 140.767 36.4064C141.329 30.4306 141.89 24.4548 142.212 18.4757C142.501 14.8895 142.315 11.0575 142.126 7.46467C142.85 6.99602 143.578 6.28808 144.306 5.58013C144.791 5.10817 145.752 4.88213 146.469 4.89208C150.787 4.23388 155.34 3.81827 159.893 3.40269C160.85 3.41595 161.811 3.18992 162.768 3.20318C168.046 2.31894 173.294 3.58837 178.303 4.85449C182.836 5.87468 186.632 8.32071 189.457 11.7107C191.574 14.3728 193.445 17.5102 194.359 20.6343C195.961 25.9221 196.842 31.4392 196.527 36.9397C196.241 40.2866 196.195 43.6367 196.152 46.7476C196.138 47.7048 195.882 48.898 195.63 49.8518C195.112 52.7168 194.351 55.8177 193.59 58.9186C193.34 59.6332 192.848 60.5838 192.36 61.295C190.416 63.4222 188.471 65.5493 186.527 67.6765C186.039 68.3877 185.311 69.0957 184.583 69.8036ZM153.78 64.5899C156.897 64.1544 160.008 64.1975 163.126 63.7621C166.247 63.0873 169.371 62.1732 172.495 61.2591C173.455 61.0331 174.423 60.3284 174.911 59.6172C177.846 55.1103 179.344 50.5836 179.421 45.0797C179.48 40.7724 178.583 36.4517 177.928 31.8951C177.489 29.0169 176.811 26.1354 175.415 23.2439C173.78 20.3492 171.417 18.1623 168.083 16.9194C164.749 15.6765 161.393 16.1087 158.049 15.5837C157.095 15.3311 156.135 15.5571 154.938 15.5405C154.586 23.6733 154.473 31.8095 153.882 39.939C153.53 48.0718 153.421 55.9686 153.78 64.5899Z" stroke="black" stroke-width="4.05303" mask="url(#path-1-outside-1_584_1085)"/>
<path d="M216.567 9.21419C218.262 7.80162 220.186 7.11025 222.579 7.14341C224.733 7.17325 227.129 6.96711 229.286 6.75766C230.725 6.53826 230.961 6.78087 231.181 8.21997C231.154 10.1344 231.131 11.8094 231.347 13.4878C231.52 18.2771 231.693 23.0664 231.866 27.8556C231.816 31.4451 231.763 35.2739 231.71 39.1026C231.657 42.9314 231.847 46.5242 231.794 50.3529C231.458 57.2893 231.365 63.9896 231.273 70.6899C231.21 75.2366 231.386 79.7865 231.562 84.3365C231.522 87.2081 231.243 90.0763 231.207 92.7086C231.184 94.3837 231.4 96.0621 231.38 97.4979C231.37 98.2158 231.124 98.6911 231.117 99.1697C231.104 100.127 230.855 100.841 231.084 101.563C232.221 105.887 231.44 110.423 231.38 114.731C231.317 119.277 231.015 123.821 230.952 128.367C230.869 134.35 230.79 140.093 230.707 146.075C230.684 147.75 230.182 149.419 230.158 151.094C230.139 152.53 229.414 152.998 228.214 153.221C224.621 153.411 221.032 153.361 217.2 153.547C216.721 153.541 216.003 153.531 215.286 153.521C215.053 153.039 214.817 152.796 214.817 152.796C214.896 147.053 214.973 141.549 215.049 136.045C215.115 131.259 215.424 126.237 215.491 121.451C215.547 117.383 215.603 113.315 215.663 109.008C215.696 106.615 215.969 104.225 216.005 101.593C216.045 98.7215 215.849 95.6073 215.888 92.7357C215.725 87.2285 215.802 81.7247 215.881 75.9816C216.024 65.6918 216.409 55.166 216.312 44.8729C216.405 38.1725 216.741 31.2362 216.837 24.2966C216.641 21.1824 216.926 17.8355 216.973 14.4854C216.757 12.807 216.78 11.1319 216.567 9.21419Z" stroke="black" stroke-width="4.05303" mask="url(#path-1-outside-1_584_1085)"/>
<path d="M288.329 120.307C288.372 117.196 288.412 114.324 288.455 111.213C288.471 110.017 289.196 109.548 290.396 109.325C292.792 109.119 295.434 108.438 297.834 107.992C298.312 107.999 299.033 107.77 299.751 107.78C300.709 107.793 301.181 108.278 301.167 109.235C301.553 115.942 302.66 122.42 302.089 129.114C301.773 134.614 300.028 139.616 296.858 143.88C293.205 148.377 288.602 152.382 282.361 153.732C280.918 154.191 279.472 154.889 278.269 155.351C276.106 156.039 274.191 156.012 272.041 155.743C270.848 155.487 269.415 155.228 268.219 155.211C265.587 155.175 263.446 154.188 261.309 152.962C260.355 152.709 259.647 151.981 258.693 151.729C253.455 149.741 250.647 145.155 248.081 140.332C245.039 135.264 243.919 129.744 243.763 123.758C243.397 115.615 242.789 107.708 243.141 99.5756C243.197 95.5075 243.735 91.2068 243.792 87.1388C243.865 81.8742 243.702 76.3671 243.535 71.0992C243.538 70.8599 243.306 70.378 243.309 70.1387C243.362 66.3099 242.664 64.8642 242.701 62.2319C242.767 57.4459 242.594 52.6567 242.66 47.8707C243.026 38.7807 244.348 29.704 247.1 21.1258C248.353 17.0743 250.792 13.7573 253.228 10.6796C254.687 9.02438 256.857 7.85773 258.785 6.92707C261.919 5.29508 265.053 3.66311 268.41 3.23093C273.93 2.11071 278.949 2.65894 284.187 4.64626C287.524 5.64987 290.612 7.36807 293.939 9.08957C294.889 9.58143 295.836 10.3126 296.78 11.283C301.267 15.6534 302.869 20.9412 303.026 26.9269C302.966 31.2343 303.142 35.7842 303.083 40.0916C303.043 42.9632 302.528 45.5888 302.252 48.2178C301.993 49.6502 301.029 50.1156 299.833 50.099C296.718 50.2952 293.368 50.2488 290.257 50.2057C288.582 50.1824 288.586 49.9432 288.369 48.2648C287.731 42.5117 287.332 36.7619 286.694 31.0088C286.494 28.1339 284.856 25.4784 283.453 23.0656C282.512 21.8558 280.844 21.354 279.169 21.3308C274.868 20.7925 270.777 22.4112 266.925 24.0332C263.798 25.1866 262.086 27.7957 261.089 30.654C260.345 32.5584 259.836 34.7055 259.57 36.6166C258.53 42.5857 258.444 48.8075 258.84 54.7965C259.039 57.6714 258.763 60.3004 258.724 63.172C258.671 67.0007 258.621 70.5902 258.807 74.4223C259.186 81.6078 260.047 88.5607 260.19 95.5037C260.343 101.729 260.972 108.2 261.604 114.431C261.574 116.585 261.783 118.742 261.993 120.899C262.415 124.974 263.558 128.819 265.905 132.202C267.311 134.376 269.205 135.838 271.828 136.593C272.781 136.845 273.732 137.337 274.686 137.59C280.406 139.344 285.953 136.31 287.229 130.583C287.491 128.911 287.751 127.479 287.774 125.804C287.8 123.889 287.823 122.214 287.85 120.3C288.089 120.303 288.089 120.303 288.329 120.307Z" stroke="black" stroke-width="4.05303" mask="url(#path-1-outside-1_584_1085)"/>
<path d="M315.529 4.60186C319.115 4.89089 322.462 5.17661 325.566 5.69832C327.955 5.97077 328.899 6.94123 328.863 9.57349C328.836 11.4879 328.807 13.6416 329.019 15.5593C328.97 19.1487 329.159 22.7415 329.109 26.331C329.053 30.399 329.236 34.4704 328.94 38.5352C328.648 42.3606 328.837 45.9534 328.784 49.7821C328.771 50.7393 329.001 51.4605 329.223 52.6603C333.534 52.4807 337.848 52.0618 341.919 51.8789C346.233 51.46 350.301 51.5163 354.373 51.3334C358.447 50.9112 362.745 51.6888 367.069 50.552C367.079 49.8341 367.092 48.8769 367.102 48.159C367.175 42.8944 367.005 37.8659 367.075 32.8406C366.898 28.2907 366.962 23.744 367.26 19.44C367.323 14.8933 367.383 10.5859 368.4 6.29185C368.663 4.62007 369.148 4.14812 370.82 4.41062C373.445 4.9257 376.323 4.48689 378.962 4.04477C380.405 3.58606 380.637 4.06798 380.86 5.26778C381.053 8.62127 381.249 11.7355 381.442 15.0889C381.618 19.6389 382.037 23.9529 381.974 28.4995C382.157 32.5709 382.101 36.639 382.28 40.9497C382.204 46.4535 382.364 52.2 382.524 57.9464C382.471 61.7752 382.182 65.3613 383.086 69.2034C383.308 70.4032 383.052 71.5963 383.036 72.7928C382.99 76.143 382.946 79.2539 383.139 82.6073C383.306 87.8752 383.472 93.1431 383.638 98.4109C383.579 102.718 383.28 107.022 383.22 111.33C383.17 114.919 383.36 118.512 383.313 121.862C383.24 127.127 382.932 132.149 382.862 137.174C382.825 139.806 383.032 142.202 383.234 144.838C383.198 147.47 382.925 149.86 382.65 152.489C382.63 153.925 382.367 155.596 382.108 157.029C377.555 157.445 373.224 159.06 368.684 158.518C368.165 126.918 367.878 95.7991 367.355 64.4379C364.972 63.6868 362.812 64.1356 360.415 64.3417C356.344 64.5246 352.03 64.9435 347.716 65.3624C346.041 65.3392 344.363 65.5553 342.684 65.7714C338.852 65.9577 335.259 66.1472 331.424 66.5728C330.945 66.5661 330.463 66.7988 329.985 66.7922C329.024 67.0182 328.778 67.4935 328.765 68.4507C328.695 73.4759 328.387 78.4978 328.32 83.2838C328.28 86.1554 328.719 89.0336 328.683 91.6659C328.879 94.78 329.072 98.1335 329.029 101.244C328.996 103.637 328.72 106.266 328.687 108.659C328.384 113.203 328.561 117.753 328.258 122.296C328.222 124.928 327.949 127.318 327.913 129.95C327.893 131.386 328.112 132.825 328.089 134.5C328.069 135.936 328.285 137.614 328.262 139.289C327.973 142.876 327.923 146.465 327.874 150.054C327.611 151.726 327.123 152.438 325.448 152.414C322.101 152.129 318.734 153.279 315.38 153.472C314.902 153.465 314.663 153.462 314.184 153.455C312.27 153.428 312.034 153.186 312.06 151.271C312.14 145.528 312.219 139.785 312.535 134.285C312.621 128.063 312.468 121.838 312.794 115.619C312.89 108.68 313.225 101.743 313.321 94.8038C313.364 91.6929 313.165 88.8181 313.208 85.7072C313.284 80.2033 313.6 74.7028 313.676 69.199C314.008 62.5019 315.058 55.8149 314.912 49.1112C315.018 41.4537 315.363 33.7995 315.227 26.378C315.263 23.7457 315.778 21.12 315.815 18.4878C315.629 14.6557 315.678 11.0662 315.492 7.23413C315.502 6.51625 315.515 5.55905 315.529 4.60186Z" stroke="black" stroke-width="4.05303" mask="url(#path-1-outside-1_584_1085)"/>
<path d="M50.508 152.578C50.862 155.495 51.449 158.116 51.7385 160.503C52.3255 163.123 52.382 165.808 52.4707 168.758C51.675 168.854 50.9114 169.216 50.3809 169.28C46.9327 169.699 43.7497 170.085 40.5668 170.471C38.71 170.696 38.1152 170.23 37.89 168.373C37.1743 164.692 36.4586 161.011 35.7107 157.064C35.3489 156.301 35.2524 155.505 35.1559 154.709C32.3747 153.97 29.8588 153.199 27.3107 152.162C21.3865 149.92 17.0939 145.596 13.7336 140.082C10.4698 135.364 8.73312 129.923 7.79219 124.385C7.43042 123.621 7.36607 123.091 7.0043 122.327C6.4173 119.707 7.11651 118.814 9.80116 118.758C11.9553 118.766 14.1095 118.774 16.2636 118.782C18.1203 118.556 20.2423 118.299 22.1312 118.339C22.6617 118.275 22.927 118.242 23.4896 118.443C23.9479 120.003 24.1732 121.859 24.6315 123.419C26.6334 128.828 29.3667 133.61 33.3619 137.701C35.6047 140.659 38.8842 141.069 41.9063 139.356C46.1903 136.952 49.8794 134.083 50.3291 128.914C50.3369 126.76 50.61 124.574 49.8221 122.516C49.2351 119.896 47.8845 117.637 46.534 115.379C42.4501 108.338 36.172 103.178 29.6931 98.5811C27.6433 97.2149 26.0919 95.519 24.0421 94.1528C22.2254 92.4891 19.9103 91.155 18.3589 89.4591C14.9907 86.0996 11.8878 82.7079 9.28316 78.9866C4.76531 72.8059 2.80341 65.5076 2.69824 57.9842C2.71393 53.6759 3.05922 49.8659 4.16807 45.6942C4.81078 42.1172 6.90842 39.4404 8.4434 36.5627C9.9462 33.4198 12.7352 32.0049 15.5242 30.59C14.9773 26.0807 14.4624 21.8368 13.8833 17.0624C14.9121 16.6684 15.6757 16.3066 16.4392 15.9448C19.3248 15.3257 22.4434 14.4091 25.2968 13.5247C26.5908 13.0985 27.4509 13.5325 27.8449 14.5613C28.4319 17.1816 28.7536 19.8341 29.0754 22.4866C29.3006 24.3433 29.2284 25.9669 29.2206 28.1211C30.8442 28.1933 32.2348 28.5629 33.5932 28.6673C36.8727 29.0769 40.2487 30.2823 42.8934 32.1147C46.9607 34.582 49.5332 38.038 50.8759 42.4507C52.6447 48.1574 54.1484 53.8963 55.652 59.6352C56.0459 60.6641 56.1746 61.7251 56.0381 62.8182C56.1989 64.1445 55.765 65.0045 54.4709 65.4307C51.8506 66.0177 49.2625 66.8699 46.6422 67.4569C44.8176 67.9474 43.0653 66.8142 42.5426 64.7244C41.5295 60.81 40.5164 56.8957 39.5033 52.9813C38.651 50.3932 37.5013 47.572 34.6558 46.3023C32.373 45.2335 30.1223 44.4299 27.4698 44.7516C24.8173 45.0734 23.0893 46.3596 22.2857 48.6103C20.542 54.2048 20.6872 59.8393 22.456 65.5461C23.6701 68.8978 26.379 71.2607 29.0558 73.3583C30.2777 74.5558 31.7648 75.7212 32.9867 76.9187C35.7278 79.5469 38.6377 81.3471 42.279 82.5203C45.0923 83.5248 48.1709 84.4971 49.8833 87.5192C54.409 91.5457 57.4397 96.5611 61.234 101.215C64.3691 104.872 66.2423 109.22 67.8824 113.866C69.6191 119.307 69.4991 124.974 69.6442 130.608C69.6929 135.447 67.7883 139.716 64.7262 143.317C60.9649 147.81 56.2469 151.074 50.508 152.578Z" stroke="black" stroke-width="4.05303" mask="url(#path-1-outside-1_584_1085)"/>
</svg>
