<svg width="124" height="32" viewBox="0 0 124 32" fill="none" xmlns="http://www.w3.org/2000/svg">
<path d="M12.6782 9.73486L21.133 23.8853H4.22348L12.6782 9.73486Z" fill="white"/>
<path d="M26.7185 16.9729L19.7837 5.53739L33.6533 5.53739L26.7185 16.9729Z" fill="white"/>
<path d="M110.286 15.5571C110.286 14.2484 110.581 13.0964 111.171 12.101C111.779 11.1056 112.599 10.3315 113.632 9.7785C114.664 9.20709 115.834 8.92139 117.143 8.92139C118.452 8.92139 119.613 9.20709 120.627 9.7785C121.659 10.3315 122.479 11.1056 123.088 12.101C123.696 13.0964 124 14.2484 124 15.5571C124 16.8474 123.696 17.9994 123.088 19.0132C122.479 20.0086 121.659 20.7919 120.627 21.3634C119.613 21.9163 118.452 22.1928 117.143 22.1928C115.834 22.1928 114.664 21.9163 113.632 21.3634C112.599 20.7919 111.779 20.0086 111.171 19.0132C110.581 17.9994 110.286 16.8474 110.286 15.5571ZM113.355 15.5571C113.355 16.3497 113.521 17.0501 113.853 17.6584C114.185 18.2483 114.636 18.7183 115.208 19.0685C115.779 19.4003 116.424 19.5662 117.143 19.5662C117.844 19.5662 118.479 19.4003 119.051 19.0685C119.641 18.7183 120.102 18.2483 120.433 17.6584C120.765 17.0501 120.931 16.3497 120.931 15.5571C120.931 14.7645 120.765 14.0641 120.433 13.4558C120.102 12.8475 119.641 12.3775 119.051 12.0457C118.479 11.7139 117.844 11.548 117.143 11.548C116.424 11.548 115.779 11.7139 115.208 12.0457C114.636 12.3775 114.185 12.8475 113.853 13.4558C113.521 14.0641 113.355 14.7645 113.355 15.5571Z" fill="white"/>
<path d="M96.5989 9.19897H99.8614L103.179 17.4107L106.497 9.19897H109.787L103.179 23.0787L96.5989 9.19897Z" fill="white"/>
<path d="M82.3932 15.5571C82.3932 14.2484 82.6881 13.0964 83.278 12.101C83.8862 11.1056 84.7065 10.3315 85.7387 9.7785C86.7709 9.20709 87.9414 8.92139 89.2501 8.92139C90.5588 8.92139 91.7201 9.20709 92.7338 9.7785C93.7661 10.3315 94.5863 11.1056 95.1946 12.101C95.8029 13.0964 96.107 14.2484 96.107 15.5571C96.107 16.8474 95.8029 17.9994 95.1946 19.0132C94.5863 20.0086 93.7661 20.7919 92.7338 21.3634C91.7201 21.9163 90.5588 22.1928 89.2501 22.1928C87.9414 22.1928 86.7709 21.9163 85.7387 21.3634C84.7065 20.7919 83.8862 20.0086 83.278 19.0132C82.6881 17.9994 82.3932 16.8474 82.3932 15.5571ZM85.4622 15.5571C85.4622 16.3497 85.6281 17.0501 85.9599 17.6584C86.2917 18.2483 86.7433 18.7183 87.3147 19.0685C87.8861 19.4003 88.5312 19.5662 89.2501 19.5662C89.9505 19.5662 90.5865 19.4003 91.1579 19.0685C91.7477 18.7183 92.2085 18.2483 92.5403 17.6584C92.8721 17.0501 93.038 16.3497 93.038 15.5571C93.038 14.7645 92.8721 14.0641 92.5403 13.4558C92.2085 12.8475 91.7477 12.3775 91.1579 12.0457C90.5865 11.7139 89.9505 11.548 89.2501 11.548C88.5312 11.548 87.8861 11.7139 87.3147 12.0457C86.7433 12.3775 86.2917 12.8475 85.9599 13.4558C85.6281 14.0641 85.4622 14.7645 85.4622 15.5571Z" fill="white"/>
<path d="M76.4785 14.1747C76.4785 13.2346 76.285 12.5249 75.8979 12.0457C75.5108 11.5665 74.9118 11.3268 74.1007 11.3268C73.5478 11.3268 73.0593 11.4466 72.6354 11.6863C72.2114 11.9075 71.8796 12.2392 71.64 12.6816C71.4004 13.1056 71.2806 13.6033 71.2806 14.1747V21.9163H68.2945V9.19788H71.2806V11.1609C71.6861 10.4052 72.2022 9.84301 72.8289 9.47436C73.474 9.10571 74.239 8.92139 75.1238 8.92139C76.5615 8.92139 77.6582 9.36377 78.414 10.2485C79.1697 11.1149 79.5476 12.313 79.5476 13.8429V21.9163H76.4785V14.1747Z" fill="white"/>
<path d="M57.1465 17.7414C57.552 18.1837 57.9575 18.5708 58.363 18.9026C58.787 19.216 59.2109 19.4556 59.6349 19.6215C60.0588 19.7689 60.4828 19.8427 60.9067 19.8427C61.4413 19.8427 61.856 19.7229 62.1509 19.4832C62.4643 19.2436 62.6209 18.9118 62.6209 18.4879C62.6209 18.1192 62.5011 17.8059 62.2615 17.5478C62.0219 17.2713 61.6901 17.0409 61.2662 16.8566C60.8422 16.6538 60.3445 16.4511 59.7731 16.2483C59.2017 16.0271 58.6303 15.7691 58.0589 15.4742C57.5059 15.1608 57.0451 14.7553 56.6764 14.2576C56.3262 13.7599 56.1511 13.1332 56.1511 12.3775C56.1511 11.6033 56.3447 10.9582 56.7317 10.4421C57.1373 9.92596 57.6718 9.54809 58.3354 9.30847C59.0174 9.05041 59.7455 8.92139 60.5196 8.92139C61.2201 8.92139 61.8744 9.02277 62.4827 9.22552C63.1094 9.42828 63.6716 9.69555 64.1693 10.0273C64.667 10.3591 65.0909 10.737 65.4411 11.1609L63.7822 12.9305C63.3582 12.4328 62.8514 12.0273 62.2615 11.7139C61.6717 11.4006 61.0634 11.2439 60.4367 11.2439C60.0127 11.2439 59.6625 11.3361 59.386 11.5204C59.1095 11.7047 58.9713 11.972 58.9713 12.3222C58.9713 12.6171 59.0911 12.8844 59.3307 13.124C59.5888 13.3452 59.9206 13.548 60.3261 13.7323C60.75 13.9166 61.2201 14.1101 61.7362 14.3129C62.4366 14.5894 63.0818 14.8935 63.6716 15.2253C64.2614 15.5571 64.7315 15.9626 65.0817 16.4419C65.4503 16.9211 65.6347 17.5478 65.6347 18.322C65.6347 19.5201 65.2199 20.4878 64.3905 21.2251C63.5794 21.944 62.4735 22.3034 61.0726 22.3034C60.2063 22.3034 59.4045 22.1744 58.6672 21.9163C57.9483 21.6398 57.3124 21.2896 56.7594 20.8657C56.2249 20.4233 55.7733 19.9625 55.4046 19.4832L57.1465 17.7414Z" fill="white"/>
<path d="M40.024 15.5571C40.024 14.2484 40.3189 13.0964 40.9087 12.101C41.517 11.1056 42.3373 10.3315 43.3695 9.7785C44.4017 9.20709 45.5722 8.92139 46.8809 8.92139C48.1896 8.92139 49.3509 9.20709 50.3646 9.7785C51.3969 10.3315 52.2171 11.1056 52.8254 12.101C53.4337 13.0964 53.7378 14.2484 53.7378 15.5571C53.7378 16.8474 53.4337 17.9994 52.8254 19.0132C52.2171 20.0086 51.3969 20.7919 50.3646 21.3634C49.3509 21.9163 48.1896 22.1928 46.8809 22.1928C45.5722 22.1928 44.4017 21.9163 43.3695 21.3634C42.3373 20.7919 41.517 20.0086 40.9087 19.0132C40.3189 17.9994 40.024 16.8474 40.024 15.5571ZM43.093 15.5571C43.093 16.3497 43.2589 17.0501 43.5907 17.6584C43.9225 18.2483 44.3741 18.7183 44.9455 19.0685C45.5169 19.4003 46.162 19.5662 46.8809 19.5662C47.5813 19.5662 48.2173 19.4003 48.7887 19.0685C49.3785 18.7183 49.8393 18.2483 50.1711 17.6584C50.5029 17.0501 50.6688 16.3497 50.6688 15.5571C50.6688 14.7645 50.5029 14.0641 50.1711 13.4558C49.8393 12.8475 49.3785 12.3775 48.7887 12.0457C48.2173 11.7139 47.5813 11.548 46.8809 11.548C46.162 11.548 45.5169 11.7139 44.9455 12.0457C44.3741 12.3775 43.9225 12.8475 43.5907 13.4558C43.2589 14.0641 43.093 14.7645 43.093 15.5571Z" fill="white"/>
</svg>
